# Made in Blockbench 4.10.4
mtllib flight_lever.mtl

o cylinder
v 0.15625 -7.28583859910259e-17 0.5
v 0.84375 7.979727989493313e-17 0.5
v 0.15625 -0.050240473580835575 0.6875
v 0.84375 -0.05024047358083542 0.6875
v 0.15625000000000006 -0.13725952641916456 0.6372595264191645
v 0.84375 -0.1372595264191644 0.6372595264191645
v 0.15625000000000006 -0.18750000000000008 0.5502404735808355
v 0.84375 -0.18749999999999992 0.5502404735808355
v 0.15625000000000006 -0.18750000000000008 0.4497595264191645
v 0.84375 -0.18749999999999992 0.4497595264191645
v 0.15625000000000006 -0.13725952641916458 0.3627404735808355
v 0.84375 -0.13725952641916442 0.3627404735808355
v 0.15625 -0.05024047358083563 0.3125
v 0.84375 -0.05024047358083548 0.3125
v 0.15625 0.05024047358083535 0.3125
v 0.84375 0.050240473580835505 0.3125
v 0.15624999999999994 0.1372595264191644 0.3627404735808355
v 0.84375 0.13725952641916456 0.3627404735808355
v 0.15624999999999994 0.18749999999999992 0.44975952641916456
v 0.84375 0.18750000000000008 0.44975952641916456
v 0.15624999999999994 0.18749999999999992 0.5502404735808355
v 0.84375 0.18750000000000008 0.5502404735808355
v 0.15624999999999994 0.13725952641916442 0.6372595264191645
v 0.84375 0.13725952641916458 0.6372595264191645
v 0.15625 0.05024047358083541 0.6875
v 0.84375 0.05024047358083556 0.6875
vt 0.362440625 0.7999406250000001
vt 0.340684375 0.8125
vt 0.328125 0.765625
vt 0.14537187499999998 0.5625
vt 0.170490625 0.5625
vt 0.170490625 0.734375
vt 0.14537187499999998 0.734375
vt 0.340684375 0.609375
vt 0.362440625 0.6219343749999999
vt 0.328125 0.65625
vt 0.375 0.7781843749999999
vt 0.362440625 0.7999406250000001
vt 0.328125 0.765625
vt 0.0013843750000000002 0.5625
vt 0.026503125000000002 0.5625
vt 0.026503125000000002 0.734375
vt 0.0013843750000000002 0.734375
vt 0.362440625 0.6219343749999999
vt 0.375 0.6436906250000001
vt 0.328125 0.65625
vt 0.375 0.7530656250000001
vt 0.375 0.7781843749999999
vt 0.328125 0.765625
vt 0.026503125000000002 0.5625
vt 0.051621875 0.5625
vt 0.051621875 0.734375
vt 0.026503125000000002 0.734375
vt 0.375 0.6436906250000001
vt 0.375 0.6688093749999999
vt 0.328125 0.65625
vt 0.362440625 0.7313093749999999
vt 0.375 0.7530656250000001
vt 0.328125 0.765625
vt 0.051621875 0.5625
vt 0.076740625 0.5625
vt 0.076740625 0.734375
vt 0.051621875 0.734375
vt 0.375 0.6688093749999999
vt 0.362440625 0.6905656250000001
vt 0.328125 0.65625
vt 0.340684375 0.71875
vt 0.362440625 0.7313093749999999
vt 0.328125 0.765625
vt 0.188884375 0.5625
vt 0.21400312500000002 0.5625
vt 0.21400312500000002 0.734375
vt 0.188884375 0.734375
vt 0.362440625 0.6905656250000001
vt 0.340684375 0.703125
vt 0.328125 0.65625
vt 0.315565625 0.71875
vt 0.340684375 0.71875
vt 0.328125 0.765625
vt 0.21400312500000002 0.5625
vt 0.23912187499999998 0.5625
vt 0.23912187499999998 0.734375
vt 0.21400312500000002 0.734375
vt 0.340684375 0.703125
vt 0.315565625 0.703125
vt 0.328125 0.65625
vt 0.293809375 0.7313093749999999
vt 0.315565625 0.71875
vt 0.328125 0.765625
vt 0.23912187499999998 0.5625
vt 0.264240625 0.5625
vt 0.264240625 0.734375
vt 0.23912187499999998 0.734375
vt 0.315565625 0.703125
vt 0.293809375 0.6905656250000001
vt 0.328125 0.65625
vt 0.28125 0.7530656250000001
vt 0.293809375 0.7313093749999999
vt 0.328125 0.765625
vt 0.267009375 0.828125
vt 0.292128125 0.828125
vt 0.292128125 1
vt 0.267009375 1
vt 0.293809375 0.6905656250000001
vt 0.28125 0.6688093749999999
vt 0.328125 0.65625
vt 0.28125 0.7781843749999999
vt 0.28125 0.7530656250000001
vt 0.328125 0.765625
vt 0.292128125 0.828125
vt 0.317246875 0.828125
vt 0.317246875 1
vt 0.292128125 1
vt 0.28125 0.6688093749999999
vt 0.28125 0.6436906250000001
vt 0.328125 0.65625
vt 0.293809375 0.7999406250000001
vt 0.28125 0.7781843749999999
vt 0.328125 0.765625
vt 0.317246875 0.828125
vt 0.342365625 0.828125
vt 0.342365625 1
vt 0.317246875 1
vt 0.28125 0.6436906250000001
vt 0.293809375 0.6219343749999999
vt 0.328125 0.65625
vt 0.315565625 0.8125
vt 0.293809375 0.7999406250000001
vt 0.328125 0.765625
vt 0.095134375 0.5625
vt 0.120253125 0.5625
vt 0.120253125 0.734375
vt 0.095134375 0.734375
vt 0.293809375 0.6219343749999999
vt 0.315565625 0.609375
vt 0.328125 0.65625
vt 0.340684375 0.8125
vt 0.315565625 0.8125
vt 0.328125 0.765625
vt 0.120253125 0.5625
vt 0.14537187499999998 0.5625
vt 0.14537187499999998 0.734375
vt 0.120253125 0.734375
vt 0.315565625 0.609375
vt 0.340684375 0.609375
vt 0.328125 0.65625
vn -1 -2.220446049250313e-16 0
vn 1.1102230246251565e-16 -0.5 0.8660254037844387
vn 1 2.220446049250313e-16 0
vn -1 -2.220446049250313e-16 0
vn 1.922962686383564e-16 -0.8660254037844387 0.5000000000000003
vn 1 2.220446049250313e-16 0
vn -1 -2.220446049250313e-16 0
vn 2.220446049250313e-16 -1 0
vn 1 2.220446049250313e-16 0
vn -1 -2.220446049250313e-16 0
vn 1.922962686383564e-16 -0.8660254037844387 -0.4999999999999999
vn 1 2.220446049250313e-16 0
vn -1 -2.220446049250313e-16 0
vn 1.1102230246251568e-16 -0.5000000000000001 -0.8660254037844386
vn 1 2.220446049250313e-16 0
vn -1 -2.220446049250313e-16 0
vn 6.133477038311654e-32 -2.7622724904225857e-16 -1
vn 1 2.220446049250313e-16 0
vn -1 -2.220446049250313e-16 0
vn -1.1102230246251559e-16 0.4999999999999997 -0.8660254037844388
vn 1 2.220446049250313e-16 0
vn -1 -2.220446049250313e-16 0
vn -1.9229626863835646e-16 0.8660254037844389 -0.4999999999999999
vn 1 2.220446049250313e-16 0
vn -1 -2.220446049250313e-16 0
vn -2.220446049250313e-16 1 0
vn 1 2.220446049250313e-16 0
vn -1 -2.220446049250313e-16 0
vn -1.9229626863835643e-16 0.8660254037844388 0.4999999999999999
vn 1 2.220446049250313e-16 0
vn -1 -2.220446049250313e-16 0
vn -1.1102230246251573e-16 0.5000000000000003 0.8660254037844386
vn 1 2.220446049250313e-16 0
vn -1 -2.220446049250313e-16 0
vn 0 0 1
vn 1 2.220446049250313e-16 0
usemtl m_455974d0-8f4e-2485-034a-17c3e482e3df
f 5/1/1 3/2/1 1/3/1
f 3/4/2 5/5/2 6/6/2 4/7/2
f 4/8/3 6/9/3 2/10/3
f 7/11/4 5/12/4 1/13/4
f 5/14/5 7/15/5 8/16/5 6/17/5
f 6/18/6 8/19/6 2/20/6
f 9/21/7 7/22/7 1/23/7
f 7/24/8 9/25/8 10/26/8 8/27/8
f 8/28/9 10/29/9 2/30/9
f 11/31/10 9/32/10 1/33/10
f 9/34/11 11/35/11 12/36/11 10/37/11
f 10/38/12 12/39/12 2/40/12
f 13/41/13 11/42/13 1/43/13
f 11/44/14 13/45/14 14/46/14 12/47/14
f 12/48/15 14/49/15 2/50/15
f 15/51/16 13/52/16 1/53/16
f 13/54/17 15/55/17 16/56/17 14/57/17
f 14/58/18 16/59/18 2/60/18
f 17/61/19 15/62/19 1/63/19
f 15/64/20 17/65/20 18/66/20 16/67/20
f 16/68/21 18/69/21 2/70/21
f 19/71/22 17/72/22 1/73/22
f 17/74/23 19/75/23 20/76/23 18/77/23
f 18/78/24 20/79/24 2/80/24
f 21/81/25 19/82/25 1/83/25
f 19/84/26 21/85/26 22/86/26 20/87/26
f 20/88/27 22/89/27 2/90/27
f 23/91/28 21/92/28 1/93/28
f 21/94/29 23/95/29 24/96/29 22/97/29
f 22/98/30 24/99/30 2/100/30
f 25/101/31 23/102/31 1/103/31
f 23/104/32 25/105/32 26/106/32 24/107/32
f 24/108/33 26/109/33 2/110/33
f 3/111/34 25/112/34 1/113/34
f 25/114/35 3/115/35 4/116/35 26/117/35
f 26/118/36 4/119/36 2/120/36
o plane
v 0.875 0 0.71875
v 0.875 0 0.28125
v 0.125 0 0.71875
v 0.125 0 0.28125
vt 0.25 0.75
vt 0.25 1
vt 0 1
vt 0 0.75
vn 0 1 0
usemtl m_455974d0-8f4e-2485-034a-17c3e482e3df
f 27/121/37 28/122/37 30/123/37 29/124/37
o handle_one
v 0.75 0.45813293868263716 0.8
v 0.75 0.48938293868263716 0.7458734122634727
v 0.75 -0.029006350946109705 0.51875
v 0.75 0.0022436490538902953 0.4646234122634727
v 0.6875 0.48938293868263716 0.7458734122634727
v 0.6875 0.45813293868263716 0.8
v 0.6875 0.0022436490538902953 0.4646234122634727
v 0.6875 -0.029006350946109705 0.51875
vt 0.359375 1
vt 0.375 1
vt 0.375 0.859375
vt 0.359375 0.859375
vt 0.390625 1
vt 0.40625 1
vt 0.40625 0.859375
vt 0.390625 0.859375
vt 0.390625 0.84375
vt 0.40625 0.84375
vt 0.40625 0.703125
vt 0.390625 0.703125
vt 0.390625 0.6875
vt 0.40625 0.6875
vt 0.40625 0.546875
vt 0.390625 0.546875
vt 0.375 0.828125
vt 0.359375 0.828125
vt 0.359375 0.84375
vt 0.375 0.84375
vt 0.4375 0.59375
vt 0.421875 0.59375
vt 0.421875 0.578125
vt 0.4375 0.578125
vn 0 0.49999999999999994 -0.8660254037844387
vn 1 0 0
vn 0 -0.49999999999999994 0.8660254037844387
vn -1 0 0
vn 0 0.8660254037844387 0.49999999999999994
vn 0 -0.8660254037844387 -0.49999999999999994
usemtl m_455974d0-8f4e-2485-034a-17c3e482e3df
f 34/128/38 37/127/38 35/126/38 32/125/38
f 33/132/39 34/131/39 32/130/39 31/129/39
f 38/136/40 33/135/40 31/134/40 36/133/40
f 37/140/41 38/139/41 36/138/41 35/137/41
f 36/144/42 31/143/42 32/142/42 35/141/42
f 37/148/43 34/147/43 33/146/43 38/145/43
o handle_four
v 0.6875 0.4627082562299425 0.8170753175473053
v 0.6875 0.5064582562299424 0.7412980947161671
v 0.6875 0.3869310333988042 0.7733253175473056
v 0.6875 0.43068103339880415 0.6975480947161672
v 0.5000000000000002 0.5064582562299424 0.7412980947161671
v 0.5000000000000002 0.4627082562299425 0.8170753175473053
v 0.5000000000000002 0.43068103339880415 0.6975480947161672
v 0.5000000000000002 0.3869310333988042 0.7733253175473056
vt 0.421875 0.71875
vt 0.46875 0.71875
vt 0.46875 0.703125
vt 0.421875 0.703125
vt 0.453125 0.96875
vt 0.46875 0.96875
vt 0.46875 0.953125
vt 0.453125 0.953125
vt 0.421875 0.6875
vt 0.46875 0.6875
vt 0.46875 0.671875
vt 0.421875 0.671875
vt 0.0625 0.546875
vt 0.078125 0.546875
vt 0.078125 0.53125
vt 0.0625 0.53125
vt 0.46875 0.640625
vt 0.421875 0.640625
vt 0.421875 0.65625
vt 0.46875 0.65625
vt 0.46875 0.625
vt 0.421875 0.625
vt 0.421875 0.609375
vt 0.46875 0.609375
vn 0 0.49999999999999994 -0.8660254037844387
vn 1 0 0
vn 0 -0.49999999999999994 0.8660254037844387
vn -1 0 0
vn 0 0.8660254037844387 0.49999999999999994
vn 0 -0.8660254037844387 -0.49999999999999994
usemtl m_455974d0-8f4e-2485-034a-17c3e482e3df
f 42/152/44 45/151/44 43/150/44 40/149/44
f 41/156/45 42/155/45 40/154/45 39/153/45
f 46/160/46 41/159/46 39/158/46 44/157/46
f 45/164/47 46/163/47 44/162/47 43/161/47
f 44/168/48 39/167/48 40/166/48 43/165/48
f 45/172/49 42/171/49 41/170/49 46/169/49
o handle_three
v 0.5 0.4627082562299425 0.8170753175473053
v 0.5 0.5064582562299424 0.7412980947161671
v 0.5 0.3869310333988042 0.7733253175473056
v 0.5 0.43068103339880415 0.6975480947161672
v 0.3125 0.5064582562299424 0.7412980947161671
v 0.3125 0.4627082562299425 0.8170753175473053
v 0.3125 0.43068103339880415 0.6975480947161672
v 0.3125 0.3869310333988042 0.7733253175473056
vt 0.421875 0.84375
vt 0.46875 0.84375
vt 0.46875 0.828125
vt 0.421875 0.828125
vt 0.453125 1
vt 0.46875 1
vt 0.46875 0.984375
vt 0.453125 0.984375
vt 0.421875 0.8125
vt 0.46875 0.8125
vt 0.46875 0.796875
vt 0.421875 0.796875
vt 0.03125 0.546875
vt 0.046875 0.546875
vt 0.046875 0.53125
vt 0.03125 0.53125
vt 0.46875 0.765625
vt 0.421875 0.765625
vt 0.421875 0.78125
vt 0.46875 0.78125
vt 0.46875 0.75
vt 0.421875 0.75
vt 0.421875 0.734375
vt 0.46875 0.734375
vn 0 0.49999999999999994 -0.8660254037844387
vn 1 0 0
vn 0 -0.49999999999999994 0.8660254037844387
vn -1 0 0
vn 0 0.8660254037844387 0.49999999999999994
vn 0 -0.8660254037844387 -0.49999999999999994
usemtl m_455974d0-8f4e-2485-034a-17c3e482e3df
f 50/176/50 53/175/50 51/174/50 48/173/50
f 49/180/51 50/179/51 48/178/51 47/177/51
f 54/184/52 49/183/52 47/182/52 52/181/52
f 53/188/53 54/187/53 52/186/53 51/185/53
f 52/192/54 47/191/54 48/190/54 51/189/54
f 53/196/55 50/195/55 49/194/55 54/193/55
o handle_two
v 0.3125 0.45813293868263716 0.8
v 0.3125 0.48938293868263716 0.7458734122634727
v 0.3125 -0.029006350946109705 0.51875
v 0.3125 0.0022436490538902953 0.4646234122634727
v 0.25 0.48938293868263716 0.7458734122634727
v 0.25 0.45813293868263716 0.8
v 0.25 0.0022436490538902953 0.4646234122634727
v 0.25 -0.029006350946109705 0.51875
vt 0.28125 0.59375
vt 0.296875 0.59375
vt 0.296875 0.453125
vt 0.28125 0.453125
vt 0.3125 0.59375
vt 0.328125 0.59375
vt 0.328125 0.453125
vt 0.3125 0.453125
vt 0.34375 0.59375
vt 0.359375 0.59375
vt 0.359375 0.453125
vt 0.34375 0.453125
vt 0.421875 1
vt 0.4375 1
vt 0.4375 0.859375
vt 0.421875 0.859375
vt 0.4375 0.546875
vt 0.421875 0.546875
vt 0.421875 0.5625
vt 0.4375 0.5625
vt 0.015625 0.546875
vt 0 0.546875
vt 0 0.53125
vt 0.015625 0.53125
vn 0 0.49999999999999994 -0.8660254037844387
vn 1 0 0
vn 0 -0.49999999999999994 0.8660254037844387
vn -1 0 0
vn 0 0.8660254037844387 0.49999999999999994
vn 0 -0.8660254037844387 -0.49999999999999994
usemtl m_455974d0-8f4e-2485-034a-17c3e482e3df
f 58/200/56 61/199/56 59/198/56 56/197/56
f 57/204/57 58/203/57 56/202/57 55/201/57
f 62/208/58 57/207/58 55/206/58 60/205/58
f 61/212/59 62/211/59 60/210/59 59/209/59
f 60/216/60 55/215/60 56/214/60 59/213/60
f 61/220/61 58/219/61 57/218/61 62/217/61