# Made in Blockbench 4.10.4
mtllib orangelight.mtl

o cylinder
v 0.5 0.49999999999999994 0.9375
v 0.5 0.49999999999999994 1
v 0.5658262487936979 0 0.9375000000000001
v 0.5658262487936979 0 1
v 0.6929927963088228 0.03407417371093163 0.9375000000000001
v 0.6929927963088228 0.03407417371093163 1
v 0.8070072036911773 0.09990042250462955 0.9375000000000001
v 0.8070072036911773 0.09990042250462955 1
v 0.9000995774953704 0.1929927963088227 0.9375000000000001
v 0.9000995774953704 0.1929927963088227 1
v 0.9659258262890683 0.30700720369117707 0.9375
v 0.9659258262890683 0.30700720369117707 1
v 1 0.43417375120630197 0.9375
v 1 0.43417375120630197 1
v 1 0.5658262487936978 0.9375
v 1 0.5658262487936978 1
v 0.9659258262890683 0.6929927963088228 0.9375
v 0.9659258262890683 0.6929927963088228 1
v 0.9000995774953704 0.8070072036911772 0.9374999999999999
v 0.9000995774953704 0.8070072036911772 0.9999999999999999
v 0.8070072036911773 0.9000995774953703 0.9374999999999999
v 0.8070072036911773 0.9000995774953703 0.9999999999999999
v 0.6929927963088229 0.9659258262890682 0.9374999999999999
v 0.6929927963088229 0.9659258262890682 0.9999999999999999
v 0.5658262487936979 1 0.9374999999999999
v 0.5658262487936979 1 0.9999999999999999
v 0.43417375120630197 1 0.9374999999999999
v 0.43417375120630197 1 0.9999999999999999
v 0.3070072036911772 0.9659258262890683 0.9374999999999999
v 0.3070072036911772 0.9659258262890683 0.9999999999999999
v 0.19299279630882293 0.9000995774953704 0.9374999999999999
v 0.19299279630882293 0.9000995774953704 0.9999999999999999
v 0.09990042250462972 0.8070072036911773 0.9374999999999999
v 0.09990042250462972 0.8070072036911773 0.9999999999999999
v 0.0340741737109318 0.6929927963088232 0.9375
v 0.0340741737109318 0.6929927963088232 1
v 0 0.5658262487936979 0.9375
v 0 0.5658262487936979 1
v -1.1102230246251565e-16 0.4341737512063022 0.9375
v -1.1102230246251565e-16 0.4341737512063022 1
v 0.03407417371093174 0.307007203691177 0.9375
v 0.03407417371093174 0.307007203691177 1
v 0.0999004225046296 0.19299279630882277 0.9375000000000001
v 0.0999004225046296 0.19299279630882277 1
v 0.19299279630882266 0.09990042250462966 0.9375000000000001
v 0.19299279630882266 0.09990042250462966 1
v 0.30700720369117684 0.03407417371093174 0.9375000000000001
v 0.30700720369117684 0.03407417371093174 1
v 0.43417375120630197 0 0.9375000000000001
v 0.43417375120630197 0 1
vt 0.346496875 0.9829625
vt 0.2829125 1
vt 0.25 0.75
vt 0.703125 0.90625
vt 0.76895 0.90625
vt 0.76895 0.9375
vt 0.703125 0.9375
vt 0.6891625 0.0625
vt 0.7527468749999999 0.07953750000000004
vt 0.65625 0.3125
vt 0.40350312499999996 0.9500500000000001
vt 0.346496875 0.9829625
vt 0.25 0.75
vt 0.76895 0.90625
vt 0.834775 0.90625
vt 0.834775 0.9375
vt 0.76895 0.9375
vt 0.7527468749999999 0.07953750000000004
vt 0.809753125 0.11244999999999994
vt 0.65625 0.3125
vt 0.45005 0.903503125
vt 0.40350312499999996 0.9500500000000001
vt 0.25 0.75
vt 0.834775 0.90625
vt 0.9006000000000001 0.90625
vt 0.9006000000000001 0.9375
vt 0.834775 0.9375
vt 0.809753125 0.11244999999999994
vt 0.8563000000000001 0.15899687500000004
vt 0.65625 0.3125
vt 0.48296249999999996 0.8464968749999999
vt 0.45005 0.903503125
vt 0.25 0.75
vt 0.0073124999999999996 0.4375
vt 0.07313750000000001 0.4375
vt 0.07313750000000001 0.46875
vt 0.0073124999999999996 0.46875
vt 0.8563000000000001 0.15899687500000004
vt 0.8892125 0.21600312500000007
vt 0.65625 0.3125
vt 0.5 0.7829125
vt 0.48296249999999996 0.8464968749999999
vt 0.25 0.75
vt 0.07313750000000001 0.4375
vt 0.1389625 0.4375
vt 0.1389625 0.46875
vt 0.07313750000000001 0.46875
vt 0.8892125 0.21600312500000007
vt 0.90625 0.2795875
vt 0.65625 0.3125
vt 0.5 0.7170875
vt 0.5 0.7829125
vt 0.25 0.75
vt 0.1389625 0.4375
vt 0.2047875 0.4375
vt 0.2047875 0.46875
vt 0.1389625 0.46875
vt 0.90625 0.2795875
vt 0.90625 0.3454125
vt 0.65625 0.3125
vt 0.48296249999999996 0.6535031250000001
vt 0.5 0.7170875
vt 0.25 0.75
vt 0.2047875 0.4375
vt 0.2706125 0.4375
vt 0.2706125 0.46875
vt 0.2047875 0.46875
vt 0.90625 0.3454125
vt 0.8892125 0.4089968749999999
vt 0.65625 0.3125
vt 0.45005 0.596496875
vt 0.48296249999999996 0.6535031250000001
vt 0.25 0.75
vt 0.2706125 0.4375
vt 0.3364375 0.4375
vt 0.3364375 0.46875
vt 0.2706125 0.46875
vt 0.8892125 0.4089968749999999
vt 0.8563000000000001 0.46600312499999996
vt 0.65625 0.3125
vt 0.40350312499999996 0.5499499999999999
vt 0.45005 0.596496875
vt 0.25 0.75
vt 0.53125 0.78125
vt 0.59375 0.78125
vt 0.59375 0.8125
vt 0.53125 0.8125
vt 0.8563000000000001 0.46600312499999996
vt 0.809753125 0.5125500000000001
vt 0.65625 0.3125
vt 0.346496875 0.5170375
vt 0.40350312499999996 0.5499499999999999
vt 0.25 0.75
vt 0.4744 0.96875
vt 0.540225 0.96875
vt 0.540225 1
vt 0.4744 1
vt 0.809753125 0.5125500000000001
vt 0.7527468749999999 0.5454625
vt 0.65625 0.3125
vt 0.2829125 0.5
vt 0.346496875 0.5170375
vt 0.25 0.75
vt 0.540225 0.96875
vt 0.60605 0.96875
vt 0.60605 1
vt 0.540225 1
vt 0.7527468749999999 0.5454625
vt 0.6891625 0.5625
vt 0.65625 0.3125
vt 0.2170875 0.5
vt 0.2829125 0.5
vt 0.25 0.75
vt 0.60605 0.96875
vt 0.671875 0.96875
vt 0.671875 1
vt 0.60605 1
vt 0.6891625 0.5625
vt 0.6233375 0.5625
vt 0.65625 0.3125
vt 0.15350312500000002 0.5170375
vt 0.2170875 0.5
vt 0.25 0.75
vt 0.671875 0.96875
vt 0.7377 0.96875
vt 0.7377 1
vt 0.671875 1
vt 0.6233375 0.5625
vt 0.5597531250000001 0.5454625
vt 0.65625 0.3125
vt 0.09649687500000001 0.5499499999999999
vt 0.15350312500000002 0.5170375
vt 0.25 0.75
vt 0.7377 0.96875
vt 0.803525 0.96875
vt 0.803525 1
vt 0.7377 1
vt 0.5597531250000001 0.5454625
vt 0.502746875 0.5125500000000001
vt 0.65625 0.3125
vt 0.049949999999999994 0.596496875
vt 0.09649687500000001 0.5499499999999999
vt 0.25 0.75
vt 0.803525 0.96875
vt 0.8693500000000001 0.96875
vt 0.8693500000000001 1
vt 0.803525 1
vt 0.502746875 0.5125500000000001
vt 0.4562 0.46600312499999996
vt 0.65625 0.3125
vt 0.01703750000000001 0.6535031250000001
vt 0.049949999999999994 0.596496875
vt 0.25 0.75
vt 0.5385625 0.84375
vt 0.6043875 0.84375
vt 0.6043875 0.875
vt 0.5385625 0.875
vt 0.4562 0.46600312499999996
vt 0.42328750000000004 0.4089968749999999
vt 0.65625 0.3125
vt 0 0.7170875
vt 0.01703750000000001 0.6535031250000001
vt 0.25 0.75
vt 0.6043875 0.84375
vt 0.6702125 0.84375
vt 0.6702125 0.875
vt 0.6043875 0.875
vt 0.42328750000000004 0.4089968749999999
vt 0.40625 0.3454125
vt 0.65625 0.3125
vt 0 0.7829125
vt 0 0.7170875
vt 0.25 0.75
vt 0.6702125 0.84375
vt 0.7360375 0.84375
vt 0.7360375 0.875
vt 0.6702125 0.875
vt 0.40625 0.3454125
vt 0.40625 0.2795875
vt 0.65625 0.3125
vt 0.01703750000000001 0.8464968749999999
vt 0 0.7829125
vt 0.25 0.75
vt 0.7360375 0.84375
vt 0.8018624999999999 0.84375
vt 0.8018624999999999 0.875
vt 0.7360375 0.875
vt 0.40625 0.2795875
vt 0.42328750000000004 0.21600312500000007
vt 0.65625 0.3125
vt 0.049949999999999994 0.903503125
vt 0.01703750000000001 0.8464968749999999
vt 0.25 0.75
vt 0.8018624999999999 0.84375
vt 0.8676875 0.84375
vt 0.8676875 0.875
vt 0.8018624999999999 0.875
vt 0.42328750000000004 0.21600312500000007
vt 0.4562 0.15899687500000004
vt 0.65625 0.3125
vt 0.09649687500000001 0.9500500000000001
vt 0.049949999999999994 0.903503125
vt 0.25 0.75
vt 0.53125 0.71875
vt 0.59375 0.71875
vt 0.59375 0.75
vt 0.53125 0.75
vt 0.4562 0.15899687500000004
vt 0.502746875 0.11244999999999994
vt 0.65625 0.3125
vt 0.15350312500000002 0.9829625
vt 0.09649687500000001 0.9500500000000001
vt 0.25 0.75
vt 0.5056499999999999 0.90625
vt 0.571475 0.90625
vt 0.571475 0.9375
vt 0.5056499999999999 0.9375
vt 0.502746875 0.11244999999999994
vt 0.5597531250000001 0.07953750000000004
vt 0.65625 0.3125
vt 0.2170875 1
vt 0.15350312500000002 0.9829625
vt 0.25 0.75
vt 0.571475 0.90625
vt 0.6373 0.90625
vt 0.6373 0.9375
vt 0.571475 0.9375
vt 0.5597531250000001 0.07953750000000004
vt 0.6233375 0.0625
vt 0.65625 0.3125
vt 0.2829125 1
vt 0.2170875 1
vt 0.25 0.75
vt 0.6373 0.90625
vt 0.703125 0.90625
vt 0.703125 0.9375
vt 0.6373 0.9375
vt 0.6233375 0.0625
vt 0.6891625 0.0625
vt 0.65625 0.3125
vn 0 -2.220446049250313e-16 -1
vn 0.25881904510252013 -0.9659258262890684 2.1447861848524062e-16
vn 0 2.220446049250313e-16 1
vn 0 -2.220446049250313e-16 -1
vn 0.4999999999999998 -0.8660254037844388 1.9229626863835643e-16
vn 0 2.220446049250313e-16 1
vn 0 -2.220446049250313e-16 -1
vn 0.7071067811865476 -0.7071067811865476 1.5700924586837752e-16
vn 0 2.220446049250313e-16 1
vn 0 -2.220446049250313e-16 -1
vn 0.8660254037844388 -0.4999999999999998 1.110223024625156e-16
vn 0 2.220446049250313e-16 1
vn 0 -2.220446049250313e-16 -1
vn 0.9659258262890684 -0.25881904510252074 5.746937261686308e-17
vn 0 2.220446049250313e-16 1
vn 0 -2.220446049250313e-16 -1
vn 1 -8.43298110533869e-16 1.8724979578751832e-31
vn 0 2.220446049250313e-16 1
vn 0 -2.220446049250313e-16 -1
vn 0.9659258262890682 0.2588190451025212 -5.746937261686318e-17
vn 0 2.220446049250313e-16 1
vn 0 -2.220446049250313e-16 -1
vn 0.8660254037844388 0.4999999999999998 -1.110223024625156e-16
vn 0 2.220446049250313e-16 1
vn 0 -2.220446049250313e-16 -1
vn 0.7071067811865478 0.7071067811865474 -1.5700924586837747e-16
vn 0 2.220446049250313e-16 1
vn 0 -2.220446049250313e-16 -1
vn 0.4999999999999999 0.8660254037844387 -1.922962686383564e-16
vn 0 2.220446049250313e-16 1
vn 0 -2.220446049250313e-16 -1
vn 0.25881904510252046 0.9659258262890684 -2.1447861848524062e-16
vn 0 2.220446049250313e-16 1
vn 0 -2.220446049250313e-16 -1
vn 0 1 -2.220446049250313e-16
vn 0 2.220446049250313e-16 1
vn 0 -2.220446049250313e-16 -1
vn -0.2588190451025205 0.9659258262890683 -2.144786184852406e-16
vn 0 2.220446049250313e-16 1
vn 0 -2.220446049250313e-16 -1
vn -0.4999999999999999 0.8660254037844389 -1.9229626863835646e-16
vn 0 2.220446049250313e-16 1
vn 0 -2.220446049250313e-16 -1
vn -0.7071067811865474 0.7071067811865478 -1.5700924586837757e-16
vn 0 2.220446049250313e-16 1
vn 0 -2.220446049250313e-16 -1
vn -0.8660254037844384 0.5000000000000006 -1.1102230246251578e-16
vn 0 2.220446049250313e-16 1
vn 0 -2.220446049250313e-16 -1
vn -0.9659258262890683 0.2588190451025208 -5.746937261686309e-17
vn 0 2.220446049250313e-16 1
vn 0 -2.220446049250313e-16 -1
vn -1 8.432981105338697e-16 -1.8724979578751847e-31
vn 0 2.220446049250313e-16 1
vn 0 -2.220446049250313e-16 -1
vn -0.9659258262890683 -0.2588190451025213 5.74693726168632e-17
vn 0 2.220446049250313e-16 1
vn 0 -2.220446049250313e-16 -1
vn -0.8660254037844387 -0.4999999999999999 1.1102230246251563e-16
vn 0 2.220446049250313e-16 1
vn 0 -2.220446049250313e-16 -1
vn -0.7071067811865478 -0.7071067811865474 1.5700924586837747e-16
vn 0 2.220446049250313e-16 1
vn 0 -2.220446049250313e-16 -1
vn -0.5000000000000006 -0.8660254037844384 1.9229626863835633e-16
vn 0 2.220446049250313e-16 1
vn 0 -2.220446049250313e-16 -1
vn -0.25881904510252046 -0.9659258262890685 2.1447861848524064e-16
vn 0 2.220446049250313e-16 1
vn 0 -2.220446049250313e-16 -1
vn 0 -1 2.220446049250313e-16
vn 0 2.220446049250313e-16 1
usemtl m_a4495f01-8f73-7a9d-64ce-274b0d42a593
f 5/1/1 3/2/1 1/3/1
f 3/4/2 5/5/2 6/6/2 4/7/2
f 4/8/3 6/9/3 2/10/3
f 7/11/4 5/12/4 1/13/4
f 5/14/5 7/15/5 8/16/5 6/17/5
f 6/18/6 8/19/6 2/20/6
f 9/21/7 7/22/7 1/23/7
f 7/24/8 9/25/8 10/26/8 8/27/8
f 8/28/9 10/29/9 2/30/9
f 11/31/10 9/32/10 1/33/10
f 9/34/11 11/35/11 12/36/11 10/37/11
f 10/38/12 12/39/12 2/40/12
f 13/41/13 11/42/13 1/43/13
f 11/44/14 13/45/14 14/46/14 12/47/14
f 12/48/15 14/49/15 2/50/15
f 15/51/16 13/52/16 1/53/16
f 13/54/17 15/55/17 16/56/17 14/57/17
f 14/58/18 16/59/18 2/60/18
f 17/61/19 15/62/19 1/63/19
f 15/64/20 17/65/20 18/66/20 16/67/20
f 16/68/21 18/69/21 2/70/21
f 19/71/22 17/72/22 1/73/22
f 17/74/23 19/75/23 20/76/23 18/77/23
f 18/78/24 20/79/24 2/80/24
f 21/81/25 19/82/25 1/83/25
f 19/84/26 21/85/26 22/86/26 20/87/26
f 20/88/27 22/89/27 2/90/27
f 23/91/28 21/92/28 1/93/28
f 21/94/29 23/95/29 24/96/29 22/97/29
f 22/98/30 24/99/30 2/100/30
f 25/101/31 23/102/31 1/103/31
f 23/104/32 25/105/32 26/106/32 24/107/32
f 24/108/33 26/109/33 2/110/33
f 27/111/34 25/112/34 1/113/34
f 25/114/35 27/115/35 28/116/35 26/117/35
f 26/118/36 28/119/36 2/120/36
f 29/121/37 27/122/37 1/123/37
f 27/124/38 29/125/38 30/126/38 28/127/38
f 28/128/39 30/129/39 2/130/39
f 31/131/40 29/132/40 1/133/40
f 29/134/41 31/135/41 32/136/41 30/137/41
f 30/138/42 32/139/42 2/140/42
f 33/141/43 31/142/43 1/143/43
f 31/144/44 33/145/44 34/146/44 32/147/44
f 32/148/45 34/149/45 2/150/45
f 35/151/46 33/152/46 1/153/46
f 33/154/47 35/155/47 36/156/47 34/157/47
f 34/158/48 36/159/48 2/160/48
f 37/161/49 35/162/49 1/163/49
f 35/164/50 37/165/50 38/166/50 36/167/50
f 36/168/51 38/169/51 2/170/51
f 39/171/52 37/172/52 1/173/52
f 37/174/53 39/175/53 40/176/53 38/177/53
f 38/178/54 40/179/54 2/180/54
f 41/181/55 39/182/55 1/183/55
f 39/184/56 41/185/56 42/186/56 40/187/56
f 40/188/57 42/189/57 2/190/57
f 43/191/58 41/192/58 1/193/58
f 41/194/59 43/195/59 44/196/59 42/197/59
f 42/198/60 44/199/60 2/200/60
f 45/201/61 43/202/61 1/203/61
f 43/204/62 45/205/62 46/206/62 44/207/62
f 44/208/63 46/209/63 2/210/63
f 47/211/64 45/212/64 1/213/64
f 45/214/65 47/215/65 48/216/65 46/217/65
f 46/218/66 48/219/66 2/220/66
f 49/221/67 47/222/67 1/223/67
f 47/224/68 49/225/68 50/226/68 48/227/68
f 48/228/69 50/229/69 2/230/69
f 3/231/70 49/232/70 1/233/70
f 49/234/71 3/235/71 4/236/71 50/237/71
f 50/238/72 4/239/72 2/240/72